<svg xmlns="http://www.w3.org/2000/svg" width="107" height="107" fill="none" viewBox="0 0 107 107"><path fill="#000" fill-rule="evenodd" d="M44.3047 4.18478C20.9958 8.50358 3.34375 28.9404 3.34375 53.5C3.34375 78.0596 20.9958 98.4964 44.3047 102.815V92.1369C26.8089 87.9886 13.793 72.2643 13.793 53.5C13.793 34.7357 26.8089 19.0114 44.3047 14.8631V4.18478ZM62.6953 92.1369C80.1911 87.9886 93.207 72.2643 93.207 53.5C93.207 34.7357 80.1911 19.0114 62.6953 14.8631V4.18478C86.0042 8.50358 103.656 28.9404 103.656 53.5C103.656 78.0596 86.0042 98.4964 62.6953 102.815V92.1369Z" clip-rule="evenodd"/><path fill="#000" fill-rule="evenodd" d="M32.6529 23.4062L23.4063 32.6529L44.3005 53.5471L23.4062 74.4414L32.6529 83.688L53.5472 62.7938L74.4414 83.688L83.6881 74.4414L62.7938 53.5471L83.688 32.6529L74.4414 23.4063L53.5472 44.3005L32.6529 23.4062Z" clip-rule="evenodd"/></svg>